<svg xmlns="http://www.w3.org/2000/svg" width="600" height="400" viewBox="0 0 600 400" role="img" aria-label="Coupon template preview">
  <defs>
    <linearGradient id="g" x1="0" y1="0" x2="1" y2="1">
      <stop offset="0" stop-color="#111827"/>
      <stop offset="1" stop-color="#334155"/>
    </linearGradient>
  </defs>
  <rect width="600" height="400" fill="#f8fafc"/>
  <rect x="40" y="40" width="520" height="320" rx="22" fill="white" stroke="#e2e8f0" stroke-width="2"/>
  <rect x="40" y="40" width="520" height="120" rx="22" fill="url(#g)"/>
  <rect x="80" y="90" width="260" height="14" rx="7" fill="rgba(255,255,255,0.9)"/>
  <rect x="80" y="114" width="210" height="10" rx="5" fill="rgba(255,255,255,0.7)"/>
  <rect x="80" y="190" width="260" height="34" rx="10" fill="#0f172a"/>
  <rect x="80" y="242" width="360" height="12" rx="6" fill="#cbd5e1"/>
  <rect x="80" y="266" width="320" height="12" rx="6" fill="#e2e8f0"/>
  <path d="M438 260c6-22 18-34 38-34s32 12 38 34" fill="#e2e8f0" stroke="#cbd5e1"/>
  <circle cx="466" cy="270" r="14" fill="#94a3b8"/>
  <circle cx="524" cy="270" r="14" fill="#94a3b8"/>
</svg>

