<svg xmlns="http://www.w3.org/2000/svg" width="600" height="400" viewBox="0 0 600 400" role="img" aria-label="Coupon template preview">
  <defs>
    <linearGradient id="g" x1="0" y1="0" x2="1" y2="1">
      <stop offset="0" stop-color="#dc2626"/>
      <stop offset="1" stop-color="#ea580c"/>
    </linearGradient>
  </defs>
  <rect width="600" height="400" fill="#fff7ed"/>
  <rect x="40" y="40" width="520" height="320" rx="22" fill="white" stroke="#fed7aa" stroke-width="2"/>
  <rect x="40" y="40" width="520" height="120" rx="22" fill="url(#g)"/>
  <path d="M80 150c70-40 150-20 220 0s150 40 260 0v50H80z" fill="rgba(255,255,255,0.18)"/>
  <rect x="80" y="90" width="260" height="14" rx="7" fill="rgba(255,255,255,0.9)"/>
  <rect x="80" y="114" width="210" height="10" rx="5" fill="rgba(255,255,255,0.7)"/>
  <rect x="80" y="190" width="290" height="34" rx="10" fill="#7c2d12" opacity="0.9"/>
  <rect x="80" y="242" width="360" height="12" rx="6" fill="#fdba74"/>
  <rect x="80" y="266" width="320" height="12" rx="6" fill="#fed7aa"/>
  <circle cx="475" cy="255" r="48" fill="#ffedd5" stroke="#fed7aa"/>
  <path d="M455 260c12-18 36-18 40 0" stroke="#fb923c" stroke-width="8" stroke-linecap="round"/>
</svg>

