<svg xmlns="http://www.w3.org/2000/svg" width="600" height="400" viewBox="0 0 600 400" role="img" aria-label="Coupon template preview">
  <defs>
    <linearGradient id="g" x1="0" y1="0" x2="1" y2="1">
      <stop offset="0" stop-color="#7c3aed"/>
      <stop offset="1" stop-color="#2563eb"/>
    </linearGradient>
  </defs>
  <rect width="600" height="400" fill="#f5f3ff"/>
  <rect x="40" y="40" width="520" height="320" rx="22" fill="white" stroke="#ddd6fe" stroke-width="2"/>
  <rect x="40" y="40" width="520" height="110" rx="22" fill="url(#g)"/>
  <rect x="80" y="78" width="260" height="14" rx="7" fill="rgba(255,255,255,0.9)"/>
  <rect x="80" y="102" width="210" height="10" rx="5" fill="rgba(255,255,255,0.7)"/>
  <rect x="80" y="190" width="240" height="34" rx="10" fill="#0f172a"/>
  <rect x="80" y="242" width="360" height="12" rx="6" fill="#c4b5fd"/>
  <rect x="80" y="266" width="320" height="12" rx="6" fill="#ddd6fe"/>
  <path d="M452 200h68l-8 86h-52z" fill="#ede9fe" stroke="#ddd6fe"/>
  <path d="M464 200c2-22 18-34 22-34s20 12 22 34" fill="none" stroke="#a78bfa" stroke-width="6" stroke-linecap="round"/>
</svg>

